<svg width="140" height="41" viewBox="0 0 140 41" fill="none" xmlns="http://www.w3.org/2000/svg">
  <g clip-path="url(#clip0_7701_3796)">
    <path d="M52.7265 12.1716C54.4875 12.1716 55.9896 10.7213 55.9896 8.90851C55.9896 7.09571 54.5393 5.69727 52.7265 5.69727C50.9655 5.69727 49.5153 7.09571 49.5153 8.90851C49.5153 10.7213 50.9655 12.1716 52.7265 12.1716ZM48.7384 38.4831C53.4516 38.4831 55.5234 35.479 55.5234 31.2319V13.7772H49.9296V31.1801C49.9296 33.0965 49.1009 33.9252 47.8061 33.9252C46.7702 33.9252 46.2522 33.718 45.5271 33.1482L44.1287 37.24C45.4753 38.1205 46.3558 38.4831 48.7384 38.4831Z" fill="#9a9a9a "/>
    <path d="M77.0702 31.3356V13.7773H71.4764V25.1203C70.803 25.949 69.7154 26.8295 68.1097 26.8295C66.2969 26.8295 65.2093 26.1044 65.2093 23.9808V13.7773H59.6155V26.3116C59.6155 29.5228 61.4283 31.8018 65.4164 31.8018C68.4205 31.8018 70.3887 30.5069 71.4764 29.2638V31.3874H77.0702V31.3356Z" fill="#9a9a9a "/>
    <path d="M83.9069 12.1716C85.6679 12.1716 87.1699 10.7213 87.1699 8.90851C87.1699 7.09571 85.7197 5.69727 83.9069 5.69727C82.0941 5.69727 80.6956 7.09571 80.6956 8.90851C80.6956 10.7213 82.1459 12.1716 83.9069 12.1716ZM86.7038 31.3354V13.7772H81.11V31.3354H86.7038Z" fill="#9a9a9a "/>
    <path d="M99.2381 31.7503C103.071 31.7503 105.402 30.0411 106.437 28.4873L102.812 25.0689C102.139 26.053 100.999 26.7781 99.497 26.7781C97.1663 26.7781 95.4053 25.1207 95.4053 22.4792C95.4053 19.8376 97.1663 18.232 99.497 18.232C100.999 18.232 102.139 18.9053 102.812 19.8894L106.437 16.5228C105.402 14.969 103.071 13.2598 99.2381 13.2598C93.7479 13.2598 89.6561 16.989 89.6561 22.4792C89.6561 27.9693 93.7479 31.7503 99.2381 31.7503Z" fill="#9a9a9a "/>
    <path d="M117.418 31.7493C120.111 31.7493 123.012 30.9724 124.773 29.4186L122.338 25.7412C121.302 26.6735 119.282 27.2432 118.039 27.2432C115.501 27.2432 114.051 25.9484 113.637 24.3945H126.171V23.0997C126.171 17.1433 122.39 13.3105 117.211 13.3105C111.72 13.3105 107.888 17.4023 107.888 22.5299C107.836 28.2273 111.979 31.7493 117.418 31.7493ZM120.784 20.5617H113.533C113.74 19.2669 114.673 17.8167 117.159 17.8167C119.749 17.8167 120.681 19.3187 120.784 20.5617Z" fill="#9a9a9a "/>
    <path d="M134.51 31.336V20.1484C135.235 19.1643 137.151 18.5428 138.601 18.5428C139.171 18.5428 139.637 18.5946 140 18.6982V13.2598C137.928 13.2598 135.649 14.451 134.51 15.9013V13.7777H128.916V31.336H134.51Z" fill="#9a9a9a "/>
    <path d="M25.8969 7.66556C27.5026 7.66556 28.7974 6.3707 28.7974 4.76508V2.90048C28.7456 1.29486 27.5026 0 25.8969 0C24.2913 0 22.9965 1.29486 22.9965 2.90048V4.81687C22.9965 6.3707 24.2913 7.66556 25.8969 7.66556Z" fill="#F05B4A"/>
    <path d="M28.7458 26.3112V14.0878C28.7458 12.6375 27.451 11.498 25.8454 11.498C24.2397 11.498 22.9449 12.6893 22.9449 14.0878V21.08V22.5302C22.9449 24.1359 21.65 25.4307 20.0444 25.4307C18.4388 25.4307 17.1957 24.1359 17.1439 22.582V22.0641V21.5979H17.0921C16.9885 20.1995 15.7973 19.1636 14.3988 19.1636C12.9486 19.1636 11.8091 20.1995 11.5501 21.5461H11.4983V22.0123V23.9287C11.4983 25.5343 10.2035 26.7774 8.59785 26.7774C6.99223 26.7774 5.69737 25.4825 5.69737 23.8769V21.0282C2.27895 20.9764 0 21.7533 0 26.3112C0 34.0286 6.42249 40.2439 14.3988 40.2439C22.3233 40.2957 28.7458 34.0286 28.7458 26.3112Z" fill="#F05B4A"/>
    <path d="M14.3987 15.3306C16.0043 15.3306 17.2992 14.0358 17.2992 12.4302V10.5138C17.2992 8.90814 16.0043 7.61328 14.3987 7.61328C12.7931 7.61328 11.4982 8.90814 11.4982 10.5138V12.4302C11.4982 14.0358 12.7931 15.3306 14.3987 15.3306Z" fill="#F05B4A"/>
    <path d="M9.0638 27.3995C8.96021 27.1924 8.85662 27.037 8.75303 26.8298C8.70124 26.8298 8.70124 26.8298 8.64945 26.8298C7.04382 26.8298 5.74896 25.5349 5.74896 23.9293V21.0806C4.14334 21.0288 2.79669 21.1842 1.8126 21.754C1.60542 22.4273 1.50183 23.2042 1.50183 24.1883C1.50183 31.9056 7.92433 38.121 15.9006 38.121C19.6816 38.121 23.2036 36.9297 25.7934 34.7543C26.8292 33.4595 27.658 31.9574 28.1759 30.3C22.1678 34.8579 13.3109 34.1328 9.0638 27.3995Z" fill="#CB5747"/>
    <path d="M7.56197 29.4714C6.31891 27.5032 5.95634 25.9494 5.85276 24.6545C5.80096 24.4473 5.74917 24.1884 5.74917 23.9812V21.1325C2.27895 20.9771 0 21.8058 0 26.3119C0 34.0293 6.42249 40.2446 14.3988 40.2446C20.8731 40.2446 26.3633 36.101 28.1761 30.3519C22.2198 36.4118 12.2235 36.878 7.56197 29.4714Z" fill="url(#paint0_linear_7701_3796)"/>
  </g>
  <defs>
    <linearGradient id="paint0_linear_7701_3796" x1="0" y1="30.687" x2="28.1518" y2="30.687" gradientUnits="userSpaceOnUse">
      <stop stop-color="#FCB834"/>
      <stop offset="1" stop-color="#F05B4A"/>
    </linearGradient>
    <clipPath id="clip0_7701_3796">
      <rect width="140" height="40.296" fill="white"/>
    </clipPath>
  </defs>
</svg>
